<?xml version="1.0" encoding="utf-8"?>
<!-- Generator: Adobe Illustrator 24.1.2, SVG Export Plug-In . SVG Version: 6.00 Build 0)  -->
<svg version="1.1" id="레이어_1" xmlns="http://www.w3.org/2000/svg" xmlns:xlink="http://www.w3.org/1999/xlink" x="0px"
	 y="0px" viewBox="0 0 340 741" style="enable-background:new 0 0 340 741;" xml:space="preserve">
<style type="text/css">
	.st0{fill:#FFFFFF;}
	.st1{enable-background:new    ;}
	.st2{fill:#20BBEE;}
	.st3{font-family:'KoPubDotumMedium';}
	.st4{font-size:30px;}
	.st5{clip-path:url(#SVGID_2_);}
	.st6{fill:none;stroke:#000000;stroke-miterlimit:10;}
	.st7{fill:#FF4435;stroke:#000000;stroke-miterlimit:10;}
	.st8{fill:#FFFFFF;stroke:#000000;stroke-miterlimit:10;}
	.st9{fill:none;}
	.st10{font-family:'AdobeMyungjoStd-Medium-KSCpc-EUC-H';}
	.st11{font-size:24px;}
	.st12{font-family:'ArialMT';}
</style>
<g>
	<rect x="-0.5" y="0.6" class="st0" width="339" height="739.8"/>
	<path d="M338,1.2v738.6H0V1.2H338 M339,0H-1v741h340V0L339,0z"/>
</g>
<text transform="matrix(1 0 0 1 48.9086 142.1227)" class="st1"><tspan x="0" y="0" class="st2 st3 st4">4. 한칸 당첨 확인</tspan><tspan x="208.9" y="0" class="st3 st4">  </tspan></text>
<text transform="matrix(1 0 0 1 162.3277 190.1227)" class="st3 st4"> </text>
<g id="그룹_715" transform="translate(0 -532)">
	<g>
		<g>
			<defs>
				<path id="SVGID_1_" d="M63.1,1428.8H327c4.8,0,8.7,3.9,8.7,8.7v173.6c0,4.8-3.9,8.7-8.7,8.7H63.1c-4.8,0-8.7-3.9-8.7-8.7v-173.6
					C54.4,1432.7,58.3,1428.8,63.1,1428.8z"/>
			</defs>
			<clipPath id="SVGID_2_">
				<use xlink:href="#SVGID_1_"  style="overflow:visible;"/>
			</clipPath>
			<g id="그룹_491" transform="translate(26 676)" class="st5">
				
					<image style="overflow:visible;enable-background:new    ;" width="976" height="2559" id="사각형_189" xlink:href="6D3B71EC.jpg"  transform="matrix(0.4145 0 0 0.4145 370.8267 -397.0374)">
				</image>
			</g>
		</g>
		<g>
			<path id="SVGID_3_" class="st6" d="M37.1,752.8H301c4.8,0,8.7,3.9,8.7,8.7v173.6c0,4.8-3.9,8.7-8.7,8.7H37.1
				c-4.8,0-8.7-3.9-8.7-8.7V761.5C28.4,756.7,32.3,752.8,37.1,752.8z"/>
		</g>
	</g>
	<g id="그룹_714" transform="translate(3.209 17.716)">
		<path id="사각형_191" class="st7" d="M137.8,812.3H192c2.8,0,5,2.2,5,5v26.5c0,2.8-2.2,5-5,5h-54.2c-2.8,0-5-2.2-5-5v-26.5
			C132.8,814.6,135,812.3,137.8,812.3z"/>
		<path id="패스_438" class="st8" d="M176.8,829.6c0.3,0.2,0.5,0.6,0.3,0.9c-0.1,0.1-0.2,0.2-0.3,0.3l-8.8,4.9l-8.8,4.9
			c-0.3,0.2-0.8,0.1-1-0.3c-0.1-0.1-0.1-0.2-0.1-0.3v-19.5c0-0.4,0.4-0.7,0.8-0.7c0.1,0,0.2,0,0.3,0.1l8.8,4.9L176.8,829.6z"/>
	</g>
</g>
<rect x="44.5" y="476" class="st9" width="249" height="103"/>
<text transform="matrix(1 0 0 1 60.5083 497.1201)" class="st1"><tspan x="0" y="0" class="st10 st11">한칸</tspan><tspan x="48" y="0" class="st12 st11"> / </tspan><tspan x="68" y="0" class="st10 st11">부자될지어당</tspan></text>
<text transform="matrix(1 0 0 1 53.0083 525.9201)" class="st1"><tspan x="0" y="0" class="st10 st11">라이브</tspan><tspan x="72" y="0" class="st12 st11"> </tspan><tspan x="78.7" y="0" class="st10 st11">방송으로</tspan><tspan x="174.7" y="0" class="st12 st11"> </tspan><tspan x="181.3" y="0" class="st10 st11">확인</tspan></text>
</svg>
