<?xml version="1.0" encoding="utf-8"?>
<!-- Generator: Adobe Illustrator 24.1.2, SVG Export Plug-In . SVG Version: 6.00 Build 0)  -->
<svg version="1.1" id="레이어_1" xmlns="http://www.w3.org/2000/svg" xmlns:xlink="http://www.w3.org/1999/xlink" x="0px"
	 y="0px" viewBox="0 0 1366 768" style="enable-background:new 0 0 1366 768;" xml:space="preserve">
<style type="text/css">
	.st0{fill:#96D5EA;}
	.st1{fill:#6CC5E9;}
	.st2{fill:#20BBEE;}
	.st3{fill:#0075C9;}
</style>
<g>
	<rect x="520.6" y="35" class="st0" width="305.8" height="160"/>
</g>
<g>
	<rect x="520.6" y="209" class="st1" width="305.8" height="160"/>
</g>
<g>
	<rect x="520.6" y="383" class="st2" width="305.8" height="160"/>
</g>
<g>
	<rect x="520.6" y="557" class="st3" width="305.8" height="160"/>
</g>
<g>
	<path d="M552.2,125.8c-0.2,0-0.4,0-0.5-0.1c-0.1-0.1-0.1-0.3-0.1-0.5V108l-1.8,1.8c-0.3,0.3-0.6,0.3-0.8,0.1l-1.8-2
		c-0.1-0.1-0.2-0.3-0.1-0.4c0-0.1,0.2-0.2,0.3-0.4l4.6-4.3c0.2-0.2,0.5-0.3,0.7-0.3h2c0.4,0,0.7,0,0.8,0.1c0.1,0.1,0.1,0.4,0.1,0.9
		v21.6c0,0.2,0,0.4-0.1,0.5c-0.1,0.1-0.2,0.1-0.5,0.1H552.2z"/>
	<path d="M566.9,128c-0.8,0-1.4-0.3-1.9-0.8c-0.5-0.5-0.8-1.2-0.8-1.9s0.3-1.4,0.8-1.9c0.5-0.5,1.2-0.8,1.9-0.8
		c0.8,0,1.4,0.3,1.9,0.8c0.5,0.5,0.8,1.2,0.8,1.9s-0.3,1.4-0.8,1.9C568.3,127.8,567.7,128,566.9,128z"/>
	<path d="M598,115.8c-2.8,0.4-5.6,0.7-8.5,0.8c-2.9,0.1-5.8,0.1-8.6,0c-0.2,0-0.4,0-0.5-0.1c-0.1-0.1-0.1-0.3-0.1-0.5v-2.1
		c0-0.2,0-0.4,0.1-0.5s0.2-0.1,0.5-0.1c0.9,0,1.8,0,2.7,0c0.9,0,1.8,0,2.7,0v-5c0-0.2,0-0.4,0.1-0.5c0.1-0.1,0.2-0.1,0.5-0.1h2.8
		c0.3,0,0.4,0,0.5,0.1c0.1,0.1,0.1,0.2,0.1,0.5v4.9c1.2,0,2.4-0.1,3.6-0.2c1.2-0.1,2.4-0.2,3.6-0.4c0.3,0,0.5,0,0.6,0
		c0.1,0,0.2,0.2,0.2,0.4l0.2,2.1c0,0.2,0,0.4-0.1,0.5C598.4,115.7,598.2,115.8,598,115.8z M596.6,110.8c-0.1,0.3-0.2,0.5-0.3,0.5
		s-0.3,0.1-0.6,0l-2.7-0.3c-0.3,0-0.5-0.1-0.5-0.3c0-0.2,0-0.3,0-0.5c0.2-0.7,0.3-1.5,0.4-2.3s0.1-1.6,0.1-2.5c0-0.3,0-0.5-0.1-0.6
		c-0.1-0.1-0.4-0.2-0.8-0.2h-9.1c-0.2,0-0.4,0-0.5-0.1c-0.1,0-0.2-0.2-0.2-0.5v-2.3c0-0.2,0.1-0.4,0.2-0.4c0.1-0.1,0.3-0.1,0.5-0.1
		h12c0.7,0,1.3,0.2,1.6,0.5c0.3,0.3,0.5,0.9,0.5,1.8c0,0.6,0,1.3,0,1.9c0,0.6-0.1,1.3-0.1,1.9s-0.1,1.2-0.2,1.8
		C596.8,109.8,596.7,110.4,596.6,110.8z M594.2,129c-1.4,0-2.7-0.1-3.9-0.4s-2.2-0.6-3-1.1c-0.8-0.5-1.5-1.1-1.9-1.8
		c-0.4-0.7-0.7-1.4-0.7-2.3s0.2-1.6,0.7-2.3c0.4-0.7,1.1-1.3,1.9-1.8c0.8-0.5,1.8-0.9,3-1.1s2.5-0.4,3.9-0.4s2.7,0.1,3.9,0.4
		s2.2,0.7,3,1.1c0.8,0.5,1.4,1.1,1.9,1.8c0.4,0.7,0.7,1.4,0.7,2.3s-0.2,1.6-0.7,2.3c-0.4,0.7-1.1,1.3-1.9,1.8
		c-0.8,0.5-1.8,0.9-3,1.1S595.7,129,594.2,129z M594.2,121.1c-0.9,0-1.6,0.1-2.3,0.2c-0.7,0.1-1.2,0.3-1.6,0.5
		c-0.4,0.2-0.8,0.5-1,0.8c-0.2,0.3-0.3,0.6-0.3,0.8s0.1,0.6,0.3,0.8c0.2,0.3,0.5,0.5,1,0.8c0.4,0.2,1,0.4,1.6,0.5
		c0.6,0.1,1.4,0.2,2.3,0.2c0.9,0,1.6-0.1,2.3-0.2c0.7-0.1,1.2-0.3,1.7-0.5c0.5-0.2,0.8-0.5,1-0.8c0.2-0.3,0.3-0.6,0.3-0.8
		s-0.1-0.6-0.3-0.8c-0.2-0.3-0.6-0.5-1-0.8c-0.4-0.2-1-0.4-1.7-0.5C595.9,121.2,595.1,121.1,594.2,121.1z M607.1,111.3h-3.5v5.5
		c0,0.4-0.2,0.6-0.6,0.6h-3c-0.4,0-0.6-0.2-0.6-0.6v-16.2c0-0.2,0-0.4,0.1-0.4s0.2-0.1,0.5-0.1h3c0.2,0,0.4,0,0.5,0.1
		c0.1,0.1,0.1,0.2,0.1,0.4v7.2h3.5c0.2,0,0.3,0,0.4,0.1c0.1,0,0.2,0.2,0.2,0.5v2.3C607.7,111.2,607.5,111.3,607.1,111.3z"/>
	<path d="M634.8,123.9H609c-0.3,0-0.4-0.1-0.5-0.2c-0.1-0.1-0.1-0.3-0.1-0.4v-2.2c0-0.2,0-0.4,0.1-0.5c0.1-0.1,0.2-0.1,0.5-0.1h9.5
		v-8c0-0.2,0-0.4,0.1-0.5c0.1-0.1,0.3-0.1,0.5-0.1h2.9c0.2,0,0.4,0,0.5,0.1c0.1,0.1,0.1,0.2,0.1,0.5v8h12.1c0.4,0,0.6,0.2,0.6,0.6
		v2.2C635.4,123.6,635.2,123.9,634.8,123.9z M631.2,116.6c0,0.3-0.1,0.5-0.2,0.5c-0.1,0.1-0.3,0.1-0.6,0l-2.6-0.3
		c-0.3,0-0.5-0.1-0.5-0.3s0-0.3,0-0.5c0.1-0.7,0.3-1.5,0.4-2.3c0.1-0.8,0.2-1.7,0.2-2.5c0.1-0.8,0.1-1.7,0.1-2.5s0-1.7,0-2.4
		c0-0.3,0-0.5-0.1-0.6c-0.1-0.1-0.4-0.2-0.8-0.2H613c-0.2,0-0.4,0-0.5-0.1s-0.2-0.2-0.2-0.5v-2.4c0-0.2,0.1-0.4,0.2-0.4
		s0.3-0.1,0.5-0.1h17.1c0.7,0,1.3,0.2,1.6,0.5c0.3,0.3,0.5,0.9,0.5,1.8c0,2.6-0.1,5-0.3,7.1C631.7,113.4,631.5,115.1,631.2,116.6z"
		/>
	<path d="M647.8,117.9c-0.3,0.1-0.6,0.2-0.7,0.1c-0.1,0-0.2-0.1-0.3-0.3l-1-2.1c-0.2-0.4-0.1-0.7,0.3-0.8c1-0.4,1.9-0.9,2.8-1.4
		c0.9-0.5,1.7-1,2.5-1.6s1.5-1.1,2.1-1.6c0.6-0.5,1.1-1.1,1.5-1.5c0.4-0.5,0.3-0.8-0.2-0.8h-7.1c-0.4,0-0.5-0.2-0.5-0.6v-2
		c0-0.4,0.2-0.6,0.6-0.6H658c1.2,0,2,0.3,2.3,0.9s0.2,1.4-0.2,2.4c-0.4,1-1.1,2.1-2.1,3.2c0.8,0.6,1.6,1.1,2.4,1.5
		c0.8,0.4,1.5,0.8,2.1,1.1c0.4,0.2,0.4,0.4,0.2,0.8l-1.1,2c-0.1,0.2-0.2,0.3-0.3,0.3c-0.1,0-0.3,0-0.5-0.1c-0.3-0.1-0.7-0.3-1.1-0.5
		c-0.4-0.2-0.9-0.5-1.4-0.8c-0.5-0.3-1-0.6-1.4-0.9c-0.5-0.3-1-0.7-1.4-1c-1.1,0.9-2.4,1.8-3.7,2.5
		C650.4,116.8,649.1,117.4,647.8,117.9z M657.3,103.4h-7.3c-0.2,0-0.3,0-0.4-0.1c-0.1-0.1-0.2-0.3-0.2-0.5v-1.9
		c0-0.3,0.1-0.4,0.2-0.5c0.1-0.1,0.3-0.1,0.4-0.1h7.3c0.4,0,0.7,0.2,0.7,0.7v1.8C658,103.2,657.8,103.4,657.3,103.4z M666,128.4
		h-13.5c-0.5,0-0.9,0-1.2-0.1c-0.3-0.1-0.5-0.2-0.7-0.3s-0.3-0.4-0.3-0.7c-0.1-0.3-0.1-0.6-0.1-1.1v-5.6c0-0.9,0.1-1.5,0.5-1.8
		c0.3-0.3,0.9-0.4,1.7-0.4h13.6c0.5,0,0.9,0,1.2,0.1c0.3,0.1,0.5,0.2,0.7,0.4s0.3,0.4,0.3,0.7c0.1,0.3,0.1,0.7,0.1,1.1v5.6
		c0,0.4,0,0.8-0.1,1.1c-0.1,0.3-0.2,0.5-0.4,0.7c-0.2,0.2-0.4,0.3-0.7,0.3C666.8,128.4,666.4,128.4,666,128.4z M664,122.2
		c0-0.2-0.1-0.4-0.3-0.4h-9.1c-0.2,0-0.4,0.1-0.4,0.4v2.5c0,0.2,0.1,0.4,0.4,0.4h9c0.1,0,0.2,0,0.3,0c0,0,0.1-0.1,0.1-0.3V122.2z
		 M671.9,111.1h-3.7v5.2c0,0.2,0,0.4-0.1,0.5c-0.1,0.1-0.2,0.1-0.4,0.1h-3c-0.4,0-0.6-0.2-0.6-0.6v-15.5c0-0.4,0.2-0.6,0.6-0.6h3
		c0.4,0,0.5,0.2,0.5,0.6v7h3.7c0.2,0,0.3,0,0.4,0.1c0.1,0.1,0.2,0.2,0.2,0.5v2.3c0,0.2-0.1,0.4-0.2,0.5
		C672.2,111,672,111.1,671.9,111.1z"/>
	<path d="M682.2,122.2c-1.2,0-2.2-0.3-3.1-0.8c-0.9-0.5-1.7-1.2-2.4-2.1c-0.6-0.9-1.2-2-1.5-3.2c-0.4-1.2-0.5-2.6-0.5-4
		c0-1.5,0.2-2.9,0.5-4.1c0.3-1.3,0.9-2.3,1.5-3.2s1.4-1.6,2.4-2.1c0.9-0.5,1.9-0.8,3.1-0.8c1.4,0,2.6,0.4,3.7,1.1
		c1.1,0.7,1.9,1.7,2.5,3h5.1v-5.1c0-0.2,0-0.4,0.1-0.4s0.2-0.1,0.4-0.1h3c0.2,0,0.4,0,0.4,0.1s0.1,0.2,0.1,0.4v27.6
		c0,0.2,0,0.4-0.1,0.5c-0.1,0.1-0.2,0.1-0.4,0.1h-3c-0.2,0-0.4,0-0.4-0.1c-0.1-0.1-0.1-0.2-0.1-0.5v-10.1h-5.2
		c-0.6,1.2-1.5,2.2-2.5,2.9C684.8,121.9,683.6,122.2,682.2,122.2z M682.2,105.4c-0.5,0-1,0.2-1.4,0.5c-0.4,0.3-0.8,0.8-1.1,1.4
		c-0.3,0.6-0.5,1.3-0.7,2.1c-0.2,0.8-0.2,1.7-0.2,2.7c0,0.9,0.1,1.8,0.2,2.6c0.2,0.8,0.4,1.5,0.7,2.1c0.3,0.6,0.6,1,1.1,1.4
		s0.9,0.5,1.4,0.5c0.5,0,1-0.2,1.5-0.5c0.4-0.3,0.8-0.8,1.1-1.4c0.3-0.6,0.5-1.3,0.7-2.1c0.2-0.8,0.2-1.6,0.2-2.6
		c0-1-0.1-1.8-0.2-2.7s-0.4-1.5-0.7-2.1c-0.3-0.6-0.7-1-1.1-1.4C683.2,105.6,682.7,105.4,682.2,105.4z M693.6,109.2h-4
		c0.1,0.5,0.1,0.9,0.2,1.4c0,0.5,0.1,1,0.1,1.5c0,1-0.1,1.9-0.2,2.8h4V109.2z"/>
	<path d="M723.5,113.3h-9.3c-0.5,0-0.8,0-1.1-0.1s-0.5-0.1-0.7-0.3c-0.2-0.1-0.3-0.4-0.3-0.6c-0.1-0.3-0.1-0.6-0.1-1.1V103
		c0-0.9,0.2-1.4,0.5-1.6c0.3-0.2,0.8-0.4,1.6-0.4h9.4c0.4,0,0.8,0,1,0.1c0.3,0,0.5,0.1,0.6,0.3c0.2,0.1,0.3,0.3,0.3,0.6
		c0.1,0.3,0.1,0.6,0.1,1.1v8.3c0,0.4,0,0.8-0.1,1.1c-0.1,0.3-0.2,0.5-0.3,0.6c-0.2,0.2-0.4,0.3-0.6,0.3S724,113.3,723.5,113.3z
		 M716,129.3c-0.3,0-0.5,0-0.6,0s-0.2-0.1-0.3-0.3l-0.7-2c-0.1-0.3-0.1-0.5,0-0.5c0.1-0.1,0.3-0.1,0.5-0.2c0.9-0.2,1.9-0.3,2.9-0.6
		c1-0.2,2-0.5,3.1-0.8c1-0.3,2-0.6,3-0.9c1-0.3,1.8-0.7,2.6-1.1c0.3-0.2,0.5-0.3,0.5-0.4c0-0.1-0.2-0.1-0.6-0.1h-9.7
		c-0.3,0-0.5-0.2-0.5-0.5v-2.2c0-0.2,0-0.4,0.1-0.4c0.1-0.1,0.2-0.1,0.4-0.1H731c1,0,1.7,0.1,2.1,0.4c0.4,0.3,0.6,0.7,0.6,1.2
		c0,0.6-0.3,1.3-0.9,2c-0.6,0.7-1.5,1.3-2.6,2c0.9,0.3,1.9,0.5,2.8,0.7c1,0.2,1.9,0.4,2.8,0.5c0.2,0,0.3,0.1,0.4,0.2
		c0,0.1,0,0.2,0,0.4l-0.8,2c-0.1,0.2-0.1,0.3-0.2,0.3c-0.1,0-0.3,0.1-0.5,0c-0.6-0.1-1.3-0.1-2-0.3c-0.7-0.1-1.5-0.3-2.3-0.5
		c-0.8-0.2-1.6-0.4-2.4-0.6c-0.8-0.2-1.6-0.5-2.4-0.8c-1.4,0.5-3,1-4.6,1.4S717.7,129,716,129.3z M721.5,104.9c0-0.3,0-0.4-0.1-0.5
		c0-0.1-0.2-0.1-0.4-0.1h-4.3c-0.3,0-0.4,0-0.5,0.1s-0.1,0.2-0.1,0.5v4.5c0,0.3,0,0.4,0.1,0.5s0.2,0.1,0.5,0.1h4.3
		c0.2,0,0.4,0,0.4-0.1c0-0.1,0.1-0.2,0.1-0.5V104.9z M728.4,118.1h-7.6c-0.2,0-0.3,0-0.4-0.1s-0.2-0.2-0.2-0.5v-2.1
		c0-0.2,0.1-0.4,0.2-0.4c0.1-0.1,0.3-0.1,0.4-0.1h7.6c0.4,0,0.6,0.2,0.6,0.6v2.1C729,117.9,728.8,118.1,728.4,118.1z M733.2,115.7
		h-3c-0.2,0-0.4,0-0.5-0.1s-0.1-0.2-0.1-0.4v-14.4c0-0.2,0-0.4,0.1-0.4s0.2-0.1,0.5-0.1h3c0.2,0,0.4,0,0.5,0.1
		c0.1,0.1,0.1,0.2,0.1,0.4v14.4c0,0.2,0,0.4-0.1,0.4C733.6,115.6,733.5,115.7,733.2,115.7z"/>
	<path d="M762.4,121.5c-0.3,0.3-0.6,0.3-1.1-0.1c-0.4-0.3-0.8-0.7-1.3-1.2c-0.5-0.5-1-1.1-1.5-1.7c-0.5-0.6-1-1.3-1.4-2
		c-0.4-0.7-0.8-1.4-1.2-2c-0.4,0.8-0.8,1.5-1.2,2.3c-0.4,0.8-0.9,1.5-1.4,2.1s-1,1.3-1.6,1.9c-0.5,0.6-1.1,1.1-1.6,1.5
		c-0.3,0.2-0.5,0.3-0.6,0.4c-0.1,0-0.3-0.1-0.5-0.3l-1.6-1.7c-0.2-0.2-0.2-0.3-0.2-0.5s0.1-0.3,0.4-0.6c1.1-1.1,2.2-2.4,3.1-3.9
		c0.9-1.5,1.7-3,2.2-4.6c0.4-1.3,0.7-2.7,0.9-4.2c0.2-1.5,0.3-3.1,0.3-4.9c0-0.2,0-0.4,0.1-0.5c0.1-0.1,0.2-0.2,0.5-0.2l2.9,0.1
		c0.3,0,0.5,0.1,0.5,0.2c0.1,0.1,0.1,0.3,0.1,0.5c0,2.5-0.2,4.7-0.6,6.7c0.2,0.8,0.6,1.7,1,2.7c0.5,0.9,1,1.8,1.5,2.7
		c0.6,0.9,1.2,1.6,1.8,2.4c0.6,0.7,1.2,1.3,1.7,1.7c0.3,0.2,0.4,0.4,0.4,0.6c0,0.2-0.1,0.4-0.3,0.6L762.4,121.5z M770.1,128.9h-3
		c-0.2,0-0.4,0-0.4-0.1c-0.1-0.1-0.1-0.2-0.1-0.5v-27.6c0-0.2,0-0.4,0.1-0.4c0.1-0.1,0.2-0.1,0.4-0.1h3c0.2,0,0.4,0,0.5,0.1
		s0.1,0.2,0.1,0.4v27.6c0,0.2,0,0.4-0.1,0.5C770.5,128.9,770.4,128.9,770.1,128.9z"/>
	<path d="M778,118c-0.3,0.1-0.6,0.2-0.7,0.1c-0.1,0-0.2-0.1-0.3-0.3l-1-2.1c-0.2-0.4-0.1-0.7,0.3-0.8c1-0.4,1.9-0.9,2.8-1.4
		c0.9-0.5,1.8-1,2.5-1.6c0.8-0.5,1.5-1.1,2.1-1.6c0.6-0.5,1.1-1.1,1.5-1.5c0.4-0.5,0.3-0.8-0.2-0.8h-7.1c-0.4,0-0.6-0.2-0.6-0.6v-2
		c0-0.4,0.2-0.6,0.6-0.6h10.3c1.2,0,2,0.3,2.3,0.9c0.3,0.6,0.2,1.4-0.2,2.4c-0.3,0.6-0.6,1.2-1.1,1.9c-0.5,0.6-1,1.2-1.5,1.9
		c0.8,0.6,1.6,1.1,2.5,1.6c0.9,0.5,1.6,0.8,2.2,1.1c0.2,0.1,0.3,0.2,0.3,0.4c0,0.1,0,0.3-0.1,0.5l-1.1,2c-0.1,0.2-0.2,0.3-0.3,0.3
		c-0.1,0-0.3,0-0.5-0.1c-0.3-0.1-0.7-0.3-1.2-0.6c-0.4-0.2-0.9-0.5-1.4-0.8c-0.5-0.3-1-0.6-1.5-1c-0.5-0.3-1-0.7-1.4-1.1
		c-1.1,0.8-2.2,1.6-3.4,2.3C780.4,117,779.2,117.6,778,118z M787.5,103.5h-7.3c-0.2,0-0.3,0-0.4-0.1c-0.1-0.1-0.2-0.3-0.2-0.5V101
		c0-0.3,0.1-0.4,0.2-0.5c0.1-0.1,0.3-0.1,0.4-0.1h7.3c0.4,0,0.7,0.2,0.7,0.7v1.8C788.2,103.3,788,103.5,787.5,103.5z M790.1,129.2
		c-1.4,0-2.6-0.1-3.7-0.4c-1.1-0.3-2.1-0.6-2.9-1.1s-1.4-1-1.8-1.7c-0.4-0.7-0.7-1.4-0.7-2.2c0-0.8,0.2-1.5,0.7-2.2
		c0.4-0.7,1.1-1.2,1.8-1.7c0.8-0.5,1.7-0.8,2.9-1.1c1.1-0.3,2.3-0.4,3.7-0.4c1.3,0,2.5,0.1,3.6,0.4c1.1,0.3,2.1,0.6,2.9,1.1
		c0.8,0.5,1.5,1,2,1.7c0.5,0.7,0.7,1.4,0.7,2.2c0,0.8-0.2,1.6-0.7,2.2c-0.5,0.7-1.1,1.2-2,1.7c-0.8,0.5-1.8,0.8-2.9,1.1
		C792.5,129,791.3,129.2,790.1,129.2z M790.1,121.6c-1.6,0-2.8,0.2-3.6,0.6c-0.8,0.4-1.2,1-1.2,1.6c0,0.6,0.4,1.1,1.2,1.5
		s2,0.6,3.6,0.6c1.5,0,2.7-0.2,3.6-0.6c0.9-0.4,1.3-0.9,1.3-1.5c0-0.6-0.5-1.1-1.4-1.6C792.7,121.8,791.5,121.6,790.1,121.6z
		 M791.4,112.5c-0.2,0-0.3,0-0.4-0.1c-0.1-0.1-0.2-0.2-0.2-0.4v-2.2c0-0.3,0.1-0.4,0.2-0.5c0.1-0.1,0.3-0.1,0.4-0.1h3.4v-8.5
		c0-0.3,0.1-0.4,0.2-0.5c0.1-0.1,0.3-0.1,0.4-0.1h3c0.3,0,0.4,0.1,0.4,0.2s0.1,0.2,0.1,0.4V117c0,0.2,0,0.4-0.1,0.5
		c-0.1,0.1-0.2,0.1-0.5,0.1h-3c-0.2,0-0.4,0-0.5-0.1c-0.1-0.1-0.1-0.2-0.1-0.5v-4.6H791.4z"/>
</g>
<g>
	<path d="M575.5,300.3c-0.3,0-0.5,0-0.6-0.1c-0.1-0.1-0.2-0.2-0.2-0.5v-2.1c0-0.2,0-0.4,0.1-0.6s0.2-0.3,0.4-0.5l4.4-5.3
		c1.6-2,2.8-3.6,3.5-4.8c0.7-1.2,1.1-2.2,1.1-3c0-0.8-0.2-1.5-0.6-2c-0.4-0.5-1-0.8-1.8-0.8c-0.8-0.1-1.5,0-2.3,0.2
		c-0.8,0.2-1.7,0.6-2.6,1.2c-0.3,0.2-0.5,0.2-0.6,0.2c-0.1,0-0.2-0.2-0.2-0.3l-0.5-2.6c0-0.2,0-0.3,0-0.4c0-0.1,0.2-0.2,0.4-0.4
		c0.4-0.3,0.8-0.5,1.3-0.7s1-0.4,1.5-0.5c0.5-0.1,1-0.3,1.5-0.3c0.5-0.1,0.9-0.1,1.4-0.1c1,0,1.9,0.1,2.7,0.4
		c0.9,0.3,1.6,0.7,2.2,1.2c0.6,0.6,1.1,1.2,1.5,2.1c0.4,0.8,0.5,1.8,0.5,2.9c0,0.9-0.2,1.9-0.6,2.8c-0.4,0.9-0.9,1.9-1.5,2.7
		c-0.6,0.9-1.2,1.7-1.9,2.6c-0.7,0.8-1.3,1.5-1.8,2.2c-0.3,0.4-0.7,0.9-1.2,1.4c-0.5,0.5-0.9,1-1.3,1.4h7.9c0.3,0,0.5,0.1,0.6,0.1
		c0.1,0.1,0.1,0.3,0.1,0.6v2.3c0,0.3,0,0.5-0.1,0.6c-0.1,0.1-0.3,0.1-0.5,0.1H575.5z"/>
	<path d="M596.1,302.6c-0.8,0-1.4-0.3-1.9-0.8c-0.5-0.5-0.8-1.2-0.8-1.9s0.3-1.4,0.8-1.9c0.5-0.5,1.2-0.8,1.9-0.8
		c0.8,0,1.4,0.3,1.9,0.8c0.5,0.5,0.8,1.2,0.8,1.9s-0.3,1.4-0.8,1.9C597.5,302.3,596.8,302.6,596.1,302.6z"/>
	<path d="M632.9,290.5h-7.9v4.6h10.8c0.4,0,0.6,0.2,0.6,0.6v2.2c0,0.4-0.2,0.6-0.6,0.6H610c-0.3,0-0.4-0.1-0.5-0.2
		c-0.1-0.1-0.1-0.3-0.1-0.4v-2.2c0-0.2,0-0.4,0.1-0.5c0.1-0.1,0.2-0.1,0.5-0.1h10.8v-4.6h-8c-0.4,0-0.7-0.2-0.7-0.7v-2.1
		c0-0.4,0.2-0.6,0.7-0.6h3.3v-7.4h-2.8c-0.5,0-0.7-0.2-0.7-0.7V277c0-0.2,0.1-0.4,0.2-0.5c0.1-0.1,0.3-0.1,0.5-0.1h19
		c0.4,0,0.7,0.2,0.7,0.6v2.2c0,0.4-0.2,0.6-0.7,0.6h-2.8v7.4h3.3c0.4,0,0.7,0.2,0.7,0.6v2.2C633.5,290.3,633.3,290.5,632.9,290.5z
		 M620.3,287.1h5.2v-7.4h-5.2V287.1z"/>
	<path d="M646.4,290.5c-1.1,0-2.1-0.2-3-0.5c-0.9-0.4-1.7-0.9-2.3-1.5c-0.7-0.6-1.2-1.4-1.5-2.3s-0.5-1.8-0.5-2.8
		c0-1,0.2-1.9,0.5-2.7c0.4-0.9,0.9-1.6,1.5-2.3c0.7-0.7,1.4-1.2,2.3-1.6c0.9-0.4,1.9-0.6,3-0.6c1.1,0,2.1,0.2,3,0.6
		c0.9,0.4,1.7,0.9,2.4,1.6c0.7,0.7,1.2,1.4,1.6,2.3c0.4,0.9,0.6,1.8,0.6,2.7c0,1-0.2,2-0.6,2.8c-0.4,0.9-0.9,1.6-1.6,2.3
		c-0.7,0.6-1.5,1.2-2.4,1.5C648.5,290.3,647.5,290.5,646.4,290.5z M646.4,279.7c-0.5,0-0.9,0.1-1.3,0.3c-0.4,0.2-0.8,0.4-1.1,0.8
		c-0.3,0.3-0.6,0.7-0.7,1.2c-0.2,0.4-0.3,0.9-0.3,1.5c0,0.5,0.1,1,0.3,1.5c0.2,0.5,0.4,0.8,0.7,1.2c0.3,0.3,0.7,0.6,1.1,0.8
		c0.4,0.2,0.9,0.3,1.3,0.3c1,0,1.8-0.3,2.5-1c0.6-0.7,1-1.6,1-2.6c0-1.1-0.3-1.9-1-2.6C648.2,280.1,647.4,279.7,646.4,279.7z
		 M661.9,303h-15.8c-0.4,0-0.8,0-1.1-0.1c-0.3-0.1-0.5-0.2-0.6-0.4c-0.2-0.2-0.3-0.4-0.3-0.7c-0.1-0.3-0.1-0.6-0.1-1.1V294
		c0-0.4,0.2-0.6,0.6-0.6h3c0.4,0,0.6,0.2,0.6,0.6v5.1c0,0.3,0.2,0.5,0.5,0.5h13.2c0.2,0,0.3,0,0.4,0.1c0.1,0.1,0.2,0.2,0.2,0.4v2.4
		c0,0.3-0.1,0.4-0.2,0.5C662.2,302.9,662,303,661.9,303z M661,295h-3c-0.2,0-0.4,0-0.5-0.1c-0.1-0.1-0.1-0.2-0.1-0.5v-19.2
		c0-0.4,0.2-0.6,0.6-0.6h3c0.4,0,0.5,0.2,0.5,0.6v19.2c0,0.2,0,0.4-0.1,0.4C661.4,295,661.3,295,661,295z"/>
	<path d="M692.1,298.4h-25.8c-0.3,0-0.4-0.1-0.5-0.2c-0.1-0.1-0.1-0.3-0.1-0.4v-2.2c0-0.2,0-0.4,0.1-0.5c0.1-0.1,0.2-0.1,0.5-0.1
		h25.8c0.4,0,0.6,0.2,0.6,0.6v2.2C692.8,298.1,692.6,298.4,692.1,298.4z M688.5,291.1h-16.6c-0.9,0-1.5-0.2-1.9-0.6
		c-0.4-0.4-0.6-1-0.6-1.8v-10.4c0-0.9,0.2-1.4,0.5-1.7c0.4-0.3,1-0.4,1.8-0.4h16.6c0.4,0,0.6,0.2,0.6,0.6v2.3c0,0.2,0,0.4-0.1,0.5
		c-0.1,0.1-0.2,0.1-0.5,0.1h-14.2c-0.3,0-0.5,0.2-0.5,0.5v1.8h14.3c0.4,0,0.6,0.2,0.6,0.6v2.1c0,0.4-0.2,0.6-0.6,0.6h-14.3v2
		c0,0.3,0.2,0.5,0.5,0.5h14.3c0.5,0,0.7,0.2,0.7,0.5v2.3C689.2,291,689,291.1,688.5,291.1z"/>
	<path d="M721,293c-1.4,0.2-2.8,0.4-4.3,0.5s-3,0.2-4.5,0.3c-1.5,0.1-3,0.1-4.5,0.1s-3,0-4.4,0c-0.2,0-0.4-0.1-0.5-0.2
		c-0.1-0.1-0.1-0.2-0.1-0.5v-1.8c0-0.2,0-0.4,0.1-0.5c0.1-0.1,0.2-0.1,0.5-0.1c1.2,0,2.4,0.1,3.6,0.1c1.2,0,2.4,0,3.6,0v-1.4
		c-1.4-0.2-2.6-0.7-3.5-1.3c-0.9-0.7-1.3-1.4-1.3-2.3c0-0.6,0.2-1.1,0.5-1.6c0.3-0.5,0.8-0.9,1.4-1.3c0.6-0.4,1.3-0.6,2.2-0.8
		c0.8-0.2,1.7-0.3,2.7-0.3s1.8,0.1,2.7,0.3c0.8,0.2,1.5,0.5,2.1,0.8c0.6,0.4,1.1,0.8,1.4,1.3s0.5,1,0.5,1.6c0,0.9-0.4,1.7-1.3,2.3
		c-0.9,0.6-2,1.1-3.4,1.3v1.3c2-0.1,4-0.3,5.9-0.5c0.3,0,0.5,0,0.6,0c0.1,0.1,0.2,0.2,0.2,0.4l0.2,1.8c0,0.2,0,0.4-0.1,0.5
		C721.3,292.9,721.1,292.9,721,293z M719.8,281.1h-15c-0.5,0-0.7-0.2-0.7-0.6v-1.6c0-0.4,0.2-0.7,0.7-0.7h15c0.4,0,0.6,0.2,0.6,0.7
		v1.6C720.4,280.9,720.2,281.1,719.8,281.1z M726.1,303.5h-3c-0.4,0-0.6-0.2-0.6-0.6v-4.4c0-0.3-0.2-0.4-0.4-0.4h-14.2
		c-0.2,0-0.3,0-0.4-0.1c-0.1,0-0.2-0.2-0.2-0.4v-2c0-0.3,0.1-0.4,0.2-0.5c0.1,0,0.2-0.1,0.4-0.1h16.7c0.9,0,1.5,0.2,1.7,0.5
		c0.3,0.3,0.4,0.9,0.4,1.7v5.7C726.6,303.3,726.4,303.5,726.1,303.5z M716.1,277.4h-7.4c-0.2,0-0.3,0-0.4-0.1
		c-0.1-0.1-0.2-0.3-0.2-0.5v-1.6c0-0.3,0.1-0.4,0.2-0.5c0.1-0.1,0.3-0.1,0.4-0.1h7.4c0.4,0,0.7,0.2,0.7,0.7v1.5
		C716.8,277.2,716.6,277.4,716.1,277.4z M712.5,284.4c-1,0-1.7,0.1-2.2,0.4c-0.5,0.3-0.8,0.6-0.8,0.9c0,0.3,0.3,0.6,0.8,0.9
		c0.5,0.3,1.2,0.4,2.2,0.4c1,0,1.7-0.1,2.2-0.4c0.5-0.2,0.7-0.5,0.7-0.9c0-0.4-0.2-0.7-0.7-0.9C714.2,284.5,713.5,284.4,712.5,284.4
		z M726.1,293.5H723c-0.2,0-0.4,0-0.4-0.1c-0.1-0.1-0.1-0.2-0.1-0.5v-17.6c0-0.2,0-0.4,0.1-0.4s0.2-0.1,0.4-0.1h3.1
		c0.2,0,0.4,0,0.4,0.1s0.1,0.2,0.1,0.4v17.6c0,0.2,0,0.4-0.1,0.5C726.5,293.5,726.3,293.5,726.1,293.5z"/>
	<path d="M756.9,291.3h-25.7c-0.3,0-0.5,0-0.5-0.1c-0.1-0.1-0.1-0.3-0.1-0.5v-2.2c0-0.2,0-0.4,0.1-0.5c0.1-0.1,0.2-0.1,0.5-0.1h25.7
		c0.2,0,0.3,0,0.4,0.1c0.1,0.1,0.2,0.2,0.2,0.5v2.2C757.5,291.1,757.3,291.3,756.9,291.3z M752.9,303.4h-2.9c-0.4,0-0.7-0.2-0.7-0.6
		v-5.5c0-0.3-0.1-0.5-0.4-0.5h-14.1c-0.2,0-0.3,0-0.4-0.1c-0.1-0.1-0.2-0.2-0.2-0.4v-2.3c0-0.3,0.1-0.4,0.2-0.5
		c0.1,0,0.3-0.1,0.4-0.1h16.6c0.4,0,0.8,0,1.1,0.1c0.3,0.1,0.5,0.2,0.6,0.4c0.1,0.2,0.3,0.4,0.3,0.7s0.1,0.6,0.1,1.1v7.2
		C753.4,303.2,753.2,303.4,752.9,303.4z M753,285.6h-15.9c-0.9,0-1.5-0.2-1.9-0.6c-0.4-0.4-0.6-1-0.6-1.8v-5.8
		c0-0.9,0.2-1.4,0.5-1.7s0.9-0.4,1.8-0.4h15.8c0.4,0,0.6,0.2,0.6,0.6v2.2c0,0.2,0,0.4-0.1,0.5s-0.2,0.1-0.4,0.1h-13.5
		c-0.3,0-0.5,0.2-0.5,0.5v2.7c0,0.3,0.2,0.5,0.5,0.5H753c0.4,0,0.7,0.2,0.7,0.5v2.2C753.7,285.4,753.4,285.6,753,285.6z"/>
</g>
<g>
	<path d="M603.2,467.6c0,1-0.2,2-0.6,2.9c-0.4,0.9-0.9,1.6-1.6,2.3c-0.7,0.6-1.6,1.2-2.7,1.5c-1.1,0.4-2.3,0.5-3.7,0.5
		c-0.8,0-1.7-0.1-2.7-0.2c-1-0.1-1.8-0.4-2.5-0.6c-0.3-0.1-0.5-0.2-0.5-0.4c-0.1-0.1-0.1-0.3,0-0.5l0.3-2.4c0-0.3,0.1-0.5,0.2-0.5
		c0.1-0.1,0.3,0,0.6,0.1c0.5,0.2,1,0.3,1.6,0.5c0.6,0.2,1.2,0.3,1.6,0.3c0.7,0.1,1.4,0,2,0c0.7-0.1,1.3-0.3,1.8-0.5s1-0.6,1.3-1.1
		c0.3-0.5,0.5-1.1,0.5-1.8c0-0.4-0.1-0.8-0.3-1.2c-0.2-0.4-0.5-0.8-0.9-1.1c-0.4-0.3-0.9-0.6-1.5-0.8c-0.6-0.2-1.3-0.3-2.1-0.3h-1.6
		c-0.3,0-0.4,0-0.5-0.1c-0.1-0.1-0.1-0.2-0.1-0.5V461c0-0.3,0-0.5,0.1-0.5c0.1-0.1,0.2-0.1,0.5-0.1h1.6c0.4,0,0.9-0.1,1.4-0.2
		c0.5-0.1,1-0.3,1.4-0.6c0.4-0.3,0.8-0.6,1.1-1c0.3-0.4,0.5-0.9,0.5-1.4c0-0.8-0.3-1.4-0.8-1.9c-0.5-0.5-1.3-0.8-2.4-0.8
		c-0.7,0-1.5,0.1-2.3,0.3c-0.8,0.2-1.5,0.4-2.2,0.7c-0.3,0.1-0.5,0.2-0.7,0.1c-0.2,0-0.3-0.2-0.3-0.5l-0.3-2.5c0-0.2,0-0.3,0-0.4
		c0.1-0.1,0.3-0.2,0.6-0.3c0.8-0.3,1.7-0.6,2.6-0.9c0.9-0.2,1.8-0.3,2.6-0.3c0.9,0,1.8,0.1,2.6,0.4c0.9,0.2,1.7,0.6,2.4,1.1
		c0.7,0.5,1.3,1.1,1.7,1.9s0.6,1.7,0.6,2.7c0,0.6-0.1,1.1-0.3,1.7c-0.2,0.5-0.5,1-0.9,1.5c-0.4,0.5-0.8,0.9-1.3,1.3
		c-0.5,0.4-1.1,0.7-1.7,0.9c1.5,0.6,2.7,1.4,3.4,2.4C602.8,465.6,603.2,466.6,603.2,467.6z"/>
	<path d="M610.1,476.6c-0.8,0-1.4-0.3-1.9-0.8c-0.5-0.5-0.8-1.2-0.8-1.9s0.3-1.4,0.8-1.9c0.5-0.5,1.2-0.8,1.9-0.8
		c0.8,0,1.4,0.3,1.9,0.8c0.5,0.5,0.8,1.2,0.8,1.9s-0.3,1.4-0.8,1.9C611.5,476.3,610.8,476.6,610.1,476.6z"/>
	<path d="M640.3,456.4h-15.7c-0.4,0-0.6-0.2-0.6-0.7v-1.9c0-0.4,0.2-0.6,0.7-0.6h15.7c0.4,0,0.7,0.2,0.7,0.6v1.9
		C641,456.2,640.7,456.4,640.3,456.4z M632.6,467.7c-0.9,0-1.8-0.1-2.5-0.4c-0.8-0.3-1.5-0.6-2.1-1.1c-0.6-0.5-1.1-1-1.4-1.7
		c-0.4-0.6-0.5-1.3-0.5-2.1c0-0.7,0.2-1.4,0.5-2.1c0.3-0.6,0.8-1.2,1.4-1.6s1.3-0.8,2.1-1.1c0.8-0.3,1.7-0.4,2.6-0.4
		s1.8,0.1,2.6,0.4c0.8,0.3,1.5,0.6,2.1,1.1c0.6,0.5,1.1,1,1.4,1.6c0.3,0.6,0.5,1.3,0.5,2.1c0,0.8-0.2,1.5-0.5,2.1
		c-0.4,0.6-0.8,1.2-1.4,1.7c-0.6,0.5-1.3,0.8-2.1,1.1S633.6,467.7,632.6,467.7z M636.5,452.1h-7.8c-0.2,0-0.3,0-0.4-0.1
		c-0.1-0.1-0.2-0.2-0.2-0.5v-1.9c0-0.3,0.1-0.5,0.2-0.5c0.1-0.1,0.3-0.1,0.4-0.1h7.8c0.4,0,0.7,0.2,0.7,0.7v1.9c0,0.2,0,0.4-0.1,0.5
		C636.9,452,636.7,452.1,636.5,452.1z M647.1,477.1h-16.4c-0.4,0-0.8,0-1-0.1c-0.3-0.1-0.5-0.2-0.6-0.3s-0.3-0.4-0.3-0.7
		s-0.1-0.6-0.1-1v-5.1c0-0.4,0.2-0.6,0.6-0.6h2.9c0.4,0,0.6,0.2,0.6,0.6v3.4c0,0.3,0.1,0.5,0.5,0.5h13.8c0.2,0,0.3,0,0.4,0.1
		c0.1,0.1,0.2,0.2,0.2,0.4v2.3c0,0.3-0.1,0.4-0.2,0.5C647.4,477,647.2,477.1,647.1,477.1z M632.7,460.3c-0.9,0-1.5,0.2-2,0.7
		c-0.5,0.4-0.7,0.9-0.7,1.5c0,0.6,0.3,1.1,0.8,1.6c0.5,0.5,1.2,0.7,2,0.7c0.8,0,1.5-0.2,2-0.7c0.5-0.5,0.8-1,0.8-1.6
		c0-0.6-0.2-1.1-0.7-1.5C634.2,460.5,633.5,460.3,632.7,460.3z M650.2,462h-3.6v8c0,0.2,0,0.4-0.1,0.5c-0.1,0.1-0.2,0.1-0.4,0.1h-3
		c-0.2,0-0.4,0-0.5-0.1c-0.1-0.1-0.1-0.2-0.1-0.5v-20.8c0-0.4,0.2-0.6,0.6-0.6h3c0.4,0,0.5,0.2,0.5,0.6v9.4h3.6c0.2,0,0.3,0,0.4,0.1
		c0.1,0,0.2,0.2,0.2,0.5v2.3c0,0.2-0.1,0.4-0.2,0.4S650.3,462,650.2,462z"/>
	<path d="M654.4,467c-0.3,0.1-0.6,0.2-0.6,0.2c-0.1,0-0.2-0.1-0.3-0.3l-1.1-2.3c-0.1-0.2-0.1-0.3-0.1-0.4c0-0.1,0.2-0.2,0.5-0.3
		c1.2-0.5,2.3-1.1,3.3-1.8c1-0.7,1.9-1.4,2.7-2.3c-0.9,0-1.8,0.1-2.7,0.1c-0.9,0-1.7,0-2.5,0c-0.4,0-0.6-0.2-0.6-0.6v-2.1
		c0-0.3,0-0.5,0.1-0.5c0.1-0.1,0.2-0.1,0.5-0.1c0.6,0,1.2,0,1.9,0c0.7,0,1.3,0,2,0c0.7,0,1.4,0,2-0.1c0.7,0,1.3-0.1,1.9-0.1
		c0.4-0.7,0.6-1.3,0.9-2c0.1-0.2,0.1-0.4,0.1-0.5c0-0.1-0.2-0.2-0.6-0.2h-7.6c-0.3,0-0.4-0.1-0.5-0.2c-0.1-0.1-0.1-0.3-0.1-0.4v-2.2
		c0-0.2,0-0.4,0.1-0.5c0.1-0.1,0.2-0.1,0.5-0.1h10.3c0.9,0,1.5,0.2,1.8,0.5c0.3,0.3,0.5,0.8,0.5,1.6c0,1.2-0.3,2.5-0.8,3.9
		c-0.6,1.4-1.4,2.8-2.4,4.1c-1.1,1.3-2.4,2.6-3.9,3.8S656.4,466.2,654.4,467z M675.3,477h-16.4c-0.4,0-0.8,0-1-0.1
		c-0.3-0.1-0.5-0.2-0.6-0.3s-0.3-0.4-0.3-0.7c-0.1-0.3-0.1-0.6-0.1-1v-6.4c0-0.4,0.2-0.6,0.6-0.6h2.9c0.4,0,0.6,0.2,0.6,0.6v4.7
		c0,0.3,0.1,0.5,0.5,0.5h13.8c0.2,0,0.3,0,0.4,0.1c0.1,0.1,0.2,0.2,0.2,0.4v2.3c0,0.3-0.1,0.4-0.2,0.5
		C675.6,476.9,675.4,477,675.3,477z M678.4,460.8h-3.7v7.8c0,0.2,0,0.4-0.1,0.5c-0.1,0.1-0.2,0.1-0.4,0.1h-3c-0.2,0-0.4,0-0.5-0.1
		c-0.1-0.1-0.1-0.2-0.1-0.5v-19.3c0-0.4,0.2-0.6,0.6-0.6h3c0.4,0,0.5,0.2,0.5,0.6v8.2h3.7c0.2,0,0.3,0,0.4,0.1
		c0.1,0,0.2,0.2,0.2,0.4v2.4c0,0.2-0.1,0.4-0.2,0.4C678.7,460.8,678.6,460.8,678.4,460.8z"/>
	<path d="M714.5,465h-25.8c-0.3,0-0.5,0-0.5-0.1c-0.1-0.1-0.1-0.3-0.1-0.5v-2.1c0-0.2,0-0.4,0.1-0.5s0.2-0.1,0.5-0.1h25.8
		c0.2,0,0.3,0,0.5,0.1s0.2,0.2,0.2,0.5v2.1C715.1,464.8,714.9,465,714.5,465z M701.6,460.1c-1.4,0-2.8-0.1-3.9-0.4
		c-1.2-0.3-2.2-0.7-3.1-1.1s-1.5-1.1-2-1.8c-0.5-0.7-0.7-1.4-0.7-2.3c0-0.8,0.2-1.6,0.7-2.3c0.5-0.7,1.1-1.3,2-1.8
		c0.9-0.5,1.9-0.9,3.1-1.1c1.2-0.3,2.5-0.4,3.9-0.4c1.4,0,2.8,0.1,3.9,0.4c1.2,0.3,2.2,0.7,3.1,1.1c0.9,0.5,1.5,1.1,2,1.8
		c0.5,0.7,0.7,1.4,0.7,2.3c0,0.8-0.2,1.6-0.7,2.3c-0.5,0.7-1.1,1.3-2,1.7c-0.8,0.5-1.9,0.9-3.1,1.1
		C704.4,459.9,703.1,460.1,701.6,460.1z M701.6,477.6c-1.5,0-2.9-0.1-4.1-0.4c-1.2-0.3-2.2-0.7-3-1.2c-0.8-0.5-1.5-1.1-1.9-1.7
		c-0.4-0.7-0.6-1.4-0.6-2.1s0.2-1.5,0.6-2.1c0.4-0.7,1.1-1.2,1.9-1.7s1.8-0.9,3-1.2c1.2-0.3,2.5-0.4,4.1-0.4c1.5,0,2.9,0.1,4.1,0.4
		s2.2,0.7,3,1.2c0.8,0.5,1.4,1.1,1.9,1.7c0.4,0.7,0.7,1.4,0.7,2.1s-0.2,1.5-0.7,2.1c-0.4,0.7-1.1,1.2-1.9,1.7
		c-0.8,0.5-1.8,0.9-3,1.2C704.5,477.4,703.2,477.6,701.6,477.6z M701.6,452.2c-1.7,0-3.1,0.2-4,0.7c-0.9,0.5-1.4,1-1.4,1.6
		c0,0.3,0.1,0.6,0.4,0.8c0.2,0.3,0.6,0.5,1.1,0.7c0.5,0.2,1,0.4,1.7,0.5c0.7,0.1,1.4,0.2,2.3,0.2c1.7,0,3-0.2,4-0.7
		c0.9-0.5,1.4-1,1.4-1.6c0-0.6-0.5-1.2-1.4-1.6C704.7,452.5,703.3,452.2,701.6,452.2z M701.6,469.9c-1.6,0-2.9,0.2-3.9,0.7
		c-1,0.4-1.5,1-1.5,1.6c0,0.3,0.1,0.6,0.4,0.8s0.6,0.5,1.1,0.7c0.5,0.2,1,0.4,1.7,0.5c0.7,0.1,1.4,0.2,2.2,0.2
		c0.8,0,1.6-0.1,2.2-0.2c0.7-0.1,1.2-0.3,1.7-0.5c0.5-0.2,0.8-0.4,1.1-0.7s0.4-0.5,0.4-0.8c0-0.6-0.5-1.2-1.5-1.6
		C704.6,470.1,703.3,469.9,701.6,469.9z"/>
	<path d="M742.7,472.6H717c-0.3,0-0.4-0.1-0.5-0.2c-0.1-0.1-0.1-0.3-0.1-0.5v-2.2c0-0.2,0-0.4,0.1-0.5c0.1-0.1,0.2-0.1,0.5-0.1h10.8
		v-5.3h-5.5c-0.5,0-0.8,0-1.1-0.1c-0.3,0-0.5-0.1-0.7-0.3c-0.2-0.2-0.3-0.4-0.3-0.6c-0.1-0.3-0.1-0.6-0.1-1.1v-9.5
		c0-0.4,0-0.8,0.1-1c0.1-0.3,0.2-0.5,0.4-0.6c0.2-0.1,0.4-0.2,0.6-0.3c0.3,0,0.6-0.1,0.9-0.1h15.2c0.4,0,0.8,0,1,0.1
		c0.3,0,0.5,0.1,0.6,0.3c0.2,0.1,0.3,0.3,0.3,0.6c0.1,0.3,0.1,0.6,0.1,1.1v9.5c0,0.4,0,0.8-0.1,1.1c-0.1,0.3-0.2,0.5-0.3,0.6
		c-0.2,0.2-0.4,0.3-0.6,0.3c-0.3,0.1-0.6,0.1-1,0.1h-5.4v5.3h10.8c0.4,0,0.6,0.2,0.6,0.6v2.2C743.4,472.3,743.2,472.6,742.7,472.6z
		 M735.3,454.3c0-0.3,0-0.4-0.1-0.5c-0.1-0.1-0.2-0.1-0.4-0.1h-10c-0.3,0-0.4,0-0.5,0.1c-0.1,0.1-0.1,0.2-0.1,0.5v5.6
		c0,0.3,0,0.4,0.1,0.5s0.2,0.1,0.5,0.1h10c0.2,0,0.4,0,0.4-0.1c0-0.1,0.1-0.2,0.1-0.5V454.3z"/>
</g>
<g>
	<path d="M571.6,644.3v4.4c0,0.3,0,0.6-0.1,0.6c-0.1,0.1-0.3,0.1-0.6,0.1h-2.5c-0.3,0-0.5-0.1-0.6-0.2c-0.1-0.1-0.1-0.3-0.1-0.6
		v-4.4h-9.1c-0.3,0-0.5,0-0.6-0.1c-0.1-0.1-0.1-0.2-0.1-0.5v-2.1c0-0.2,0-0.4,0.1-0.6c0.1-0.1,0.2-0.3,0.3-0.5
		c1.5-2.3,3-4.7,4.5-7.1s3-4.7,4.6-7c0.1-0.2,0.2-0.3,0.3-0.3c0.1,0,0.3-0.1,0.5-0.1h2.8c0.4,0,0.5,0.1,0.6,0.2c0,0.1,0,0.3,0,0.5
		v13.9h2.5c0.3,0,0.5,0,0.6,0.1c0.1,0.1,0.1,0.3,0.1,0.6v2.3c0,0.3,0,0.5-0.1,0.6c-0.1,0.1-0.3,0.1-0.5,0.1H571.6z M562.3,640.6h5.3
		v-8.3L562.3,640.6z"/>
	<path d="M580.1,651.6c-0.8,0-1.4-0.3-1.9-0.8c-0.5-0.5-0.8-1.2-0.8-1.9s0.3-1.4,0.8-1.9c0.5-0.5,1.2-0.8,1.9-0.8
		c0.8,0,1.4,0.3,1.9,0.8c0.5,0.5,0.8,1.2,0.8,1.9s-0.3,1.4-0.8,1.9C581.5,651.3,580.8,651.6,580.1,651.6z"/>
	<path d="M610.3,631.4h-15.7c-0.4,0-0.6-0.2-0.6-0.7v-1.9c0-0.4,0.2-0.6,0.7-0.6h15.7c0.4,0,0.7,0.2,0.7,0.6v1.9
		C611,631.2,610.7,631.4,610.3,631.4z M602.6,642.7c-0.9,0-1.8-0.1-2.5-0.4c-0.8-0.3-1.5-0.6-2.1-1.1c-0.6-0.5-1.1-1-1.4-1.7
		c-0.4-0.6-0.5-1.3-0.5-2.1c0-0.7,0.2-1.4,0.5-2.1c0.3-0.6,0.8-1.2,1.4-1.6s1.3-0.8,2.1-1.1c0.8-0.3,1.7-0.4,2.6-0.4
		s1.8,0.1,2.6,0.4c0.8,0.3,1.5,0.6,2.1,1.1c0.6,0.5,1.1,1,1.4,1.6c0.3,0.6,0.5,1.3,0.5,2.1c0,0.8-0.2,1.5-0.5,2.1
		c-0.4,0.6-0.8,1.2-1.4,1.7c-0.6,0.5-1.3,0.8-2.1,1.1S603.6,642.7,602.6,642.7z M606.5,627.1h-7.8c-0.2,0-0.3,0-0.4-0.1
		c-0.1-0.1-0.2-0.2-0.2-0.5v-1.9c0-0.3,0.1-0.5,0.2-0.5c0.1-0.1,0.3-0.1,0.4-0.1h7.8c0.4,0,0.7,0.2,0.7,0.7v1.9c0,0.2,0,0.4-0.1,0.5
		C606.9,627,606.7,627.1,606.5,627.1z M617.1,652.1h-16.4c-0.4,0-0.8,0-1-0.1c-0.3-0.1-0.5-0.2-0.6-0.3s-0.3-0.4-0.3-0.7
		s-0.1-0.6-0.1-1v-5.1c0-0.4,0.2-0.6,0.6-0.6h2.9c0.4,0,0.6,0.2,0.6,0.6v3.4c0,0.3,0.1,0.5,0.5,0.5h13.8c0.2,0,0.3,0,0.4,0.1
		c0.1,0.1,0.2,0.2,0.2,0.4v2.3c0,0.3-0.1,0.4-0.2,0.5C617.4,652,617.2,652.1,617.1,652.1z M602.7,635.3c-0.9,0-1.5,0.2-2,0.7
		c-0.5,0.4-0.7,0.9-0.7,1.5c0,0.6,0.3,1.1,0.8,1.6c0.5,0.5,1.2,0.7,2,0.7c0.8,0,1.5-0.2,2-0.7c0.5-0.5,0.8-1,0.8-1.6
		c0-0.6-0.2-1.1-0.7-1.5C604.2,635.5,603.5,635.3,602.7,635.3z M620.2,637h-3.6v8c0,0.2,0,0.4-0.1,0.5c-0.1,0.1-0.2,0.1-0.4,0.1h-3
		c-0.2,0-0.4,0-0.5-0.1c-0.1-0.1-0.1-0.2-0.1-0.5v-20.8c0-0.4,0.2-0.6,0.6-0.6h3c0.4,0,0.5,0.2,0.5,0.6v9.4h3.6c0.2,0,0.3,0,0.4,0.1
		c0.1,0,0.2,0.2,0.2,0.5v2.3c0,0.2-0.1,0.4-0.2,0.4S620.3,637,620.2,637z"/>
	<path d="M624.4,642c-0.3,0.1-0.6,0.2-0.6,0.2c-0.1,0-0.2-0.1-0.3-0.3l-1.1-2.3c-0.1-0.2-0.1-0.3-0.1-0.4c0-0.1,0.2-0.2,0.5-0.3
		c1.2-0.5,2.3-1.1,3.3-1.8c1-0.7,1.9-1.4,2.7-2.3c-0.9,0-1.8,0.1-2.7,0.1c-0.9,0-1.7,0-2.5,0c-0.4,0-0.6-0.2-0.6-0.6v-2.1
		c0-0.3,0-0.5,0.1-0.5c0.1-0.1,0.2-0.1,0.5-0.1c0.6,0,1.2,0,1.9,0c0.7,0,1.3,0,2,0c0.7,0,1.4,0,2-0.1c0.7,0,1.3-0.1,1.9-0.1
		c0.4-0.7,0.6-1.3,0.9-2c0.1-0.2,0.1-0.4,0.1-0.5c0-0.1-0.2-0.2-0.6-0.2h-7.6c-0.3,0-0.4-0.1-0.5-0.2c-0.1-0.1-0.1-0.3-0.1-0.4v-2.2
		c0-0.2,0-0.4,0.1-0.5c0.1-0.1,0.2-0.1,0.5-0.1h10.3c0.9,0,1.5,0.2,1.8,0.5c0.3,0.3,0.5,0.8,0.5,1.6c0,1.2-0.3,2.5-0.8,3.9
		c-0.6,1.4-1.4,2.8-2.4,4.1c-1.1,1.3-2.4,2.6-3.9,3.8S626.4,641.2,624.4,642z M645.3,652h-16.4c-0.4,0-0.8,0-1-0.1
		c-0.3-0.1-0.5-0.2-0.6-0.3s-0.3-0.4-0.3-0.7c-0.1-0.3-0.1-0.6-0.1-1v-6.4c0-0.4,0.2-0.6,0.6-0.6h2.9c0.4,0,0.6,0.2,0.6,0.6v4.7
		c0,0.3,0.1,0.5,0.5,0.5h13.8c0.2,0,0.3,0,0.4,0.1c0.1,0.1,0.2,0.2,0.2,0.4v2.3c0,0.3-0.1,0.4-0.2,0.5
		C645.6,651.9,645.4,652,645.3,652z M648.4,635.8h-3.7v7.8c0,0.2,0,0.4-0.1,0.5c-0.1,0.1-0.2,0.1-0.4,0.1h-3c-0.2,0-0.4,0-0.5-0.1
		c-0.1-0.1-0.1-0.2-0.1-0.5v-19.3c0-0.4,0.2-0.6,0.6-0.6h3c0.4,0,0.5,0.2,0.5,0.6v8.2h3.7c0.2,0,0.3,0,0.4,0.1
		c0.1,0,0.2,0.2,0.2,0.4v2.4c0,0.2-0.1,0.4-0.2,0.4C648.7,635.8,648.6,635.8,648.4,635.8z"/>
	<path d="M675.3,637.9c-0.8,0.2-1.8,0.3-2.9,0.5s-2.3,0.3-3.4,0.4c-1.2,0.1-2.3,0.2-3.5,0.2s-2.1,0-3,0c-0.7,0-1.3-0.2-1.6-0.4
		c-0.4-0.2-0.5-0.8-0.5-1.6V627c0-0.4,0-0.7,0.1-1s0.2-0.4,0.3-0.6c0.2-0.1,0.4-0.2,0.6-0.3c0.3,0,0.6-0.1,1-0.1h10.4
		c0.4,0,0.6,0.2,0.6,0.5v2.4c0,0.3-0.2,0.5-0.6,0.5H665c-0.2,0-0.3,0-0.4,0.1c0,0.1-0.1,0.2-0.1,0.3v6.1c0,0.3,0.2,0.5,0.5,0.5
		c1.5,0,3-0.1,4.6-0.2c1.6-0.1,3.3-0.3,5-0.6c0.3,0,0.5,0,0.6,0.1c0.1,0.1,0.1,0.2,0.2,0.4l0.3,1.9c0,0.3,0,0.5,0,0.6
		C675.7,637.8,675.5,637.8,675.3,637.9z M672.4,652.7c-1.3,0-2.5-0.1-3.6-0.4c-1.1-0.3-2.1-0.7-2.9-1.2s-1.4-1.2-1.9-1.9
		c-0.5-0.7-0.7-1.5-0.7-2.4c0-0.8,0.2-1.6,0.7-2.3c0.5-0.7,1.1-1.3,1.9-1.9c0.8-0.5,1.8-0.9,2.9-1.2c1.1-0.3,2.3-0.4,3.6-0.4
		c1.2,0,2.4,0.1,3.5,0.4c1.1,0.3,2.1,0.7,2.9,1.2c0.8,0.5,1.5,1.2,2,1.9c0.5,0.7,0.8,1.5,0.8,2.3c0,0.9-0.3,1.7-0.8,2.4
		c-0.5,0.7-1.2,1.3-2,1.9s-1.8,0.9-2.9,1.2C674.8,652.5,673.6,652.7,672.4,652.7z M672.4,644.2c-0.8,0-1.4,0.1-2,0.2
		c-0.6,0.2-1.1,0.4-1.5,0.6c-0.4,0.3-0.7,0.5-1,0.9c-0.2,0.3-0.3,0.7-0.3,1c0,0.7,0.4,1.3,1.3,1.8c0.9,0.5,2,0.8,3.5,0.8
		c0.7,0,1.4-0.1,2-0.2c0.6-0.1,1.1-0.3,1.5-0.6c0.4-0.2,0.8-0.5,1-0.8c0.2-0.3,0.4-0.6,0.4-1s-0.1-0.7-0.4-1c-0.3-0.3-0.6-0.6-1-0.9
		c-0.4-0.3-1-0.5-1.6-0.6C673.7,644.2,673.1,644.2,672.4,644.2z M685,634.1h-3.7v5.5c0,0.4-0.2,0.5-0.5,0.5h-3
		c-0.4,0-0.6-0.2-0.6-0.6v-15.3c0-0.2,0-0.4,0.1-0.4c0.1-0.1,0.2-0.1,0.5-0.1h3c0.2,0,0.4,0,0.4,0.1c0.1,0.1,0.1,0.2,0.1,0.4v6.4
		h3.7c0.2,0,0.3,0,0.4,0.1c0.1,0,0.2,0.2,0.2,0.5v2.3C685.6,633.9,685.4,634.1,685,634.1z"/>
	<path d="M689.7,641.7c-0.3,0.1-0.6,0.2-0.7,0.1c-0.1,0-0.2-0.1-0.3-0.3l-1-2.1c-0.2-0.4-0.1-0.7,0.3-0.8c1-0.4,1.9-0.9,2.8-1.4
		c0.9-0.5,1.8-1.1,2.5-1.6s1.5-1.1,2.1-1.7c0.6-0.6,1.1-1.1,1.5-1.6c0.4-0.5,0.3-0.8-0.2-0.8h-7.1c-0.4,0-0.6-0.2-0.6-0.6v-2
		c0-0.4,0.2-0.6,0.6-0.6h10.4c1.2,0,2,0.3,2.3,0.9c0.3,0.6,0.2,1.4-0.2,2.4c-0.2,0.6-0.6,1.2-1,1.8c-0.4,0.6-0.9,1.2-1.4,1.8
		c0.8,0.6,1.5,1.1,2.4,1.5s1.5,0.8,2.1,1.1c0.2,0.1,0.3,0.2,0.3,0.4c0,0.1,0,0.3-0.1,0.5l-1.1,2c-0.1,0.2-0.2,0.3-0.3,0.3
		c-0.1,0-0.3,0-0.5-0.1c-0.3-0.1-0.7-0.3-1.1-0.5s-0.9-0.5-1.3-0.8c-0.5-0.3-1-0.6-1.4-0.9c-0.5-0.3-1-0.7-1.4-1
		c-1.1,0.9-2.3,1.7-3.5,2.4C692.2,640.6,691,641.2,689.7,641.7z M699.3,627.1H692c-0.2,0-0.3,0-0.4-0.1c-0.1-0.1-0.2-0.3-0.2-0.5
		v-1.9c0-0.3,0.1-0.4,0.2-0.5c0.1-0.1,0.3-0.1,0.4-0.1h7.3c0.4,0,0.7,0.2,0.7,0.7v1.8C699.9,626.8,699.7,627.1,699.3,627.1z
		 M708.4,652h-13.5c-0.5,0-0.9,0-1.2-0.1s-0.5-0.2-0.7-0.3s-0.3-0.4-0.3-0.7c-0.1-0.3-0.1-0.6-0.1-1.1v-5.5c0-0.9,0.2-1.5,0.4-1.8
		c0.3-0.3,0.9-0.5,1.7-0.5h13.6c0.5,0,0.9,0,1.2,0.1c0.3,0.1,0.5,0.2,0.7,0.4c0.2,0.2,0.3,0.4,0.3,0.7s0.1,0.7,0.1,1.1v5.5
		c0,0.4,0,0.8-0.1,1.1c-0.1,0.3-0.2,0.5-0.4,0.7s-0.4,0.3-0.7,0.3C709.2,652,708.8,652,708.4,652z M706.4,645.8
		c0-0.2-0.1-0.4-0.4-0.4h-9c-0.3,0-0.4,0.1-0.4,0.4v2.5c0,0.2,0.1,0.4,0.4,0.4h9c0.2,0,0.3,0,0.3,0c0,0,0.1-0.1,0.1-0.3V645.8z
		 M703.1,635.7c-0.2,0-0.3,0-0.5-0.1c-0.1-0.1-0.1-0.2-0.1-0.5v-2.2c0-0.3,0.1-0.4,0.2-0.5c0.1-0.1,0.3-0.1,0.4-0.1h3.4v-8.1
		c0-0.3,0.1-0.4,0.2-0.5c0.1-0.1,0.3-0.1,0.5-0.1h3c0.3,0,0.4,0.1,0.5,0.2c0.1,0.1,0.1,0.2,0.1,0.4v15.7c0,0.4-0.2,0.6-0.6,0.6h-3
		c-0.4,0-0.6-0.2-0.6-0.6v-4.3H703.1z"/>
	<path d="M740.8,642.1c-2.8,0.4-5.6,0.6-8.5,0.6s-5.8,0.1-8.6,0c-0.2,0-0.4-0.1-0.5-0.2c-0.1-0.1-0.1-0.2-0.1-0.5v-2
		c0-0.2,0-0.4,0.1-0.5s0.2-0.1,0.5-0.1c1.2,0,2.3,0.1,3.5,0.1c1.1,0,2.3,0,3.5,0v-1.3c-1.4-0.2-2.6-0.7-3.5-1.4
		c-0.9-0.7-1.3-1.5-1.3-2.4c0-0.6,0.2-1.1,0.5-1.6s0.8-0.9,1.4-1.3c0.6-0.4,1.3-0.6,2.2-0.9c0.8-0.2,1.7-0.3,2.7-0.3
		c1,0,1.8,0.1,2.7,0.3c0.8,0.2,1.5,0.5,2.1,0.9c0.6,0.4,1.1,0.8,1.4,1.3s0.5,1,0.5,1.6c0,0.9-0.4,1.7-1.3,2.4
		c-0.9,0.7-2,1.1-3.4,1.4v1.2c0.9,0,1.9-0.1,2.8-0.2s1.8-0.2,2.8-0.3c0.3,0,0.5,0,0.6,0c0.1,0,0.2,0.2,0.2,0.4l0.2,1.9
		c0,0.2,0,0.4-0.1,0.5S741,642,740.8,642.1z M739.9,630h-15c-0.4,0-0.7-0.2-0.7-0.6v-1.6c0-0.4,0.2-0.7,0.7-0.7h15
		c0.4,0,0.7,0.2,0.7,0.7v1.6C740.5,629.8,740.3,630,739.9,630z M745.7,652.7h-2.9c-0.4,0-0.6-0.2-0.6-0.6v-4.5
		c0-0.3-0.1-0.5-0.4-0.5h-14.2c-0.2,0-0.3,0-0.4-0.1c-0.1,0-0.2-0.2-0.2-0.4v-2c0-0.3,0.1-0.4,0.2-0.5c0.1,0,0.2-0.1,0.4-0.1h16.7
		c0.9,0,1.4,0.2,1.7,0.5c0.3,0.3,0.4,0.9,0.4,1.7v5.9C746.3,652.5,746.1,652.7,745.7,652.7z M736.1,626.3h-7.3c-0.2,0-0.3,0-0.5-0.1
		c-0.1-0.1-0.2-0.3-0.2-0.5V624c0-0.3,0.1-0.4,0.2-0.5c0.1-0.1,0.3-0.1,0.5-0.1h7.3c0.4,0,0.6,0.2,0.6,0.7v1.5
		C736.8,626.1,736.6,626.3,736.1,626.3z M732.7,633.3c-1,0-1.7,0.1-2.2,0.4s-0.7,0.6-0.7,0.9c0,0.3,0.2,0.6,0.7,0.9
		c0.5,0.3,1.2,0.4,2.2,0.4c1,0,1.7-0.1,2.1-0.4c0.5-0.3,0.7-0.6,0.7-0.9c0-0.4-0.2-0.7-0.7-0.9C734.3,633.4,733.6,633.3,732.7,633.3
		z M749.8,636.1h-3.5v5.8c0,0.4-0.2,0.6-0.6,0.6h-3c-0.4,0-0.6-0.2-0.6-0.6v-17.7c0-0.2,0-0.4,0.1-0.4s0.2-0.1,0.4-0.1h3
		c0.2,0,0.4,0,0.4,0.1s0.1,0.2,0.1,0.4v8.5h3.5c0.2,0,0.3,0,0.4,0.1c0.1,0,0.2,0.2,0.2,0.5v2.3c0,0.2,0,0.4-0.1,0.5
		S750,636.1,749.8,636.1z"/>
	<path d="M760,639.5c-1.1,0-2.1-0.2-3-0.5c-0.9-0.4-1.7-0.9-2.3-1.5s-1.2-1.4-1.5-2.3c-0.4-0.9-0.5-1.8-0.5-2.8c0-1,0.2-1.9,0.5-2.7
		c0.4-0.9,0.9-1.6,1.5-2.3s1.4-1.2,2.3-1.6c0.9-0.4,1.9-0.6,3-0.6c1.1,0,2.1,0.2,3,0.6c0.9,0.4,1.7,0.9,2.4,1.6s1.2,1.4,1.6,2.3
		c0.4,0.9,0.6,1.8,0.6,2.7c0,1-0.2,2-0.6,2.8c-0.4,0.9-0.9,1.6-1.6,2.3s-1.5,1.2-2.4,1.5C762.1,639.3,761.1,639.5,760,639.5z
		 M760,628.7c-0.5,0-0.9,0.1-1.3,0.3s-0.8,0.4-1.1,0.8c-0.3,0.3-0.5,0.7-0.7,1.2c-0.2,0.4-0.3,0.9-0.3,1.5c0,0.5,0.1,1,0.3,1.5
		s0.4,0.8,0.7,1.2c0.3,0.3,0.7,0.6,1.1,0.8c0.4,0.2,0.9,0.3,1.3,0.3c1,0,1.8-0.3,2.5-1s1-1.6,1-2.6c0-1.1-0.3-1.9-1-2.6
		S761,628.7,760,628.7z M775.5,652h-15.8c-0.4,0-0.8,0-1.1-0.1s-0.5-0.2-0.6-0.4s-0.3-0.4-0.3-0.7c-0.1-0.3-0.1-0.6-0.1-1.1V643
		c0-0.4,0.2-0.6,0.6-0.6h3c0.4,0,0.6,0.2,0.6,0.6v5.1c0,0.3,0.2,0.4,0.5,0.4h13.2c0.2,0,0.3,0,0.4,0.1c0.1,0.1,0.2,0.2,0.2,0.4v2.4
		c0,0.3-0.1,0.4-0.2,0.5C775.8,651.9,775.6,652,775.5,652z M774.6,644h-3c-0.2,0-0.4,0-0.5-0.1s-0.1-0.2-0.1-0.5v-19.2
		c0-0.4,0.2-0.6,0.6-0.6h3c0.4,0,0.5,0.2,0.5,0.6v19.2c0,0.2,0,0.4-0.1,0.5S774.8,644,774.6,644z"/>
</g>
<g>
</g>
<g>
</g>
<g>
</g>
<g>
</g>
<g>
</g>
<g>
</g>
<g>
</g>
<g>
</g>
<g>
</g>
<g>
</g>
<g>
</g>
<g>
</g>
<g>
</g>
<g>
</g>
<g>
</g>
</svg>
