<?xml version="1.0" encoding="utf-8"?>
<!-- Generator: Adobe Illustrator 24.1.2, SVG Export Plug-In . SVG Version: 6.00 Build 0)  -->
<svg version="1.1" id="레이어_1" xmlns="http://www.w3.org/2000/svg" xmlns:xlink="http://www.w3.org/1999/xlink" x="0px"
	 y="0px" viewBox="0 0 375 812" style="enable-background:new 0 0 375 812;" xml:space="preserve">
<style type="text/css">
	.st0{clip-path:url(#SVGID_2_);}
	.st1{clip-path:url(#SVGID_4_);fill:#5EB9E9;}
	.st2{clip-path:url(#SVGID_4_);fill:none;}
	.st3{clip-path:url(#SVGID_4_);fill:#FFFFFF;}
	.st4{clip-path:url(#SVGID_4_);}
	.st5{fill:#5EB9E9;}
	.st6{fill:#FFFFFF;}
	.st7{font-family:'MalgunGothic';}
	.st8{font-size:19px;}
	.st9{font-family:'SegoeUI';}
</style>
<g>
	<defs>
		<rect id="SVGID_1_" x="38.2" y="117.2" width="190" height="190"/>
	</defs>
	<clipPath id="SVGID_2_">
		<use xlink:href="#SVGID_1_"  style="overflow:visible;"/>
	</clipPath>
	<g class="st0">
		<defs>
			<rect id="SVGID_3_" x="37.5" y="119.4" width="160" height="120"/>
		</defs>
		<clipPath id="SVGID_4_">
			<use xlink:href="#SVGID_3_"  style="overflow:visible;"/>
		</clipPath>
		<rect class="st1" width="375" height="812"/>
		<rect class="st2" width="375" height="812"/>
		<rect class="st3" width="375" height="812"/>
		<rect id="사각형_325" class="st1" width="375" height="812"/>
		<g class="st4">
			<g>
				<rect x="38.5" y="116.4" class="st5" width="190" height="190"/>
			</g>
			<text transform="matrix(1 0 0 1 65 269)" class="st6 st7 st8">한칸의</text>
			<text transform="matrix(1 0 0 1 122 269)" class="st6 st9 st8"> </text>
			<text transform="matrix(1 0 0 1 127.2046 269)" class="st6 st7 st8">희망이</text>
			<text transform="matrix(1 0 0 1 65 292)" class="st6 st7 st8">당신의</text>
			<text transform="matrix(1 0 0 1 122 292)" class="st6 st9 st8"> </text>
			<text transform="matrix(1 0 0 1 127.2046 292)" class="st6 st7 st8">한칸으로</text>
			<g id="그룹_131" transform="translate(0 56.536)">
				<path id="패스_47" class="st6" d="M65,135.1v-3.2h25.7v3.2H65z M77.8,156.6c-6.6,0-11.5-3.6-11.5-9.4c0-5.9,4.9-9.3,11.5-9.3
					c6.6,0,11.5,3.5,11.5,9.3C89.3,152.9,84.4,156.6,77.8,156.6L77.8,156.6z M77.8,141.2c-4.3,0-7.9,2.2-7.9,6c0,3.8,3.6,6,7.9,6
					c4.2,0,7.9-2.2,7.9-6C85.7,143.4,82,141.2,77.8,141.2L77.8,141.2z M79.4,133.1h-3.3v-7.1h3.3V133.1z M70.7,173v-12.6h3.6v9.5
					h28.6v3.1L70.7,173z M100.8,145.3v14.5h-3.6V126h3.6v16.2h7.6v3.1L100.8,145.3z"/>
			</g>
			<g id="그룹_132" transform="translate(47.508 59.06)">
				<path id="패스_48" class="st6" d="M66.9,153.6l-1.9-2.9c8.8-2.4,14.5-7,17.5-12.6l-16.5,0v-3l17.9,0.1
					c0.7-1.9,1.1-3.9,1.3-5.9h-18V126h22.2C88.7,140.8,80.4,149.4,66.9,153.6z M71.3,170.6v-15h3.6v11.8h28.6v3.2L71.3,170.6z"/>
			</g>
			<g id="그룹_133" transform="translate(1.663)">
				<path id="패스_49" class="st6" d="M167.3,230l-98.1-0.6l0-3.5l94.5,0.6V167l-47.5-36.6l-49.3,36.8l-2.1-2.8l51.4-38.3
					l50.9,39.3L167.3,230z"/>
			</g>
			<g id="그룹_134" transform="translate(77.894 56.736)">
				<path id="패스_50" class="st6" d="M68.6,145.3v14.5H65V126h3.6v16.2h7.6v3.1H68.6z"/>
			</g>
		</g>
	</g>
</g>
</svg>
