<?xml version="1.0" encoding="utf-8"?>
<!-- Generator: Adobe Illustrator 24.1.2, SVG Export Plug-In . SVG Version: 6.00 Build 0)  -->
<svg version="1.1" id="레이어_1" xmlns="http://www.w3.org/2000/svg" xmlns:xlink="http://www.w3.org/1999/xlink" x="0px"
	 y="0px" viewBox="0 0 331 645" style="enable-background:new 0 0 331 645;" xml:space="preserve">
<style type="text/css">
	.st0{fill:#FFFFFF;stroke:#000000;stroke-miterlimit:10;}
	.st1{font-family:'ArialMT';}
	.st2{font-size:12px;}
	.st3{font-size:25px;}
	.st4{font-family:'AdobeMyungjoStd-Medium-KSCpc-EUC-H';}
	.st5{font-size:21px;}
</style>
<rect x="0.5" y="0.5" class="st0" width="330" height="644"/>
<text transform="matrix(1 0 0 1 42.2124 204.9793)" class="st1 st2"> </text>
<text transform="matrix(1 0 0 1 151.0158 188.7793)" class="st1 st3">Next</text>
<text transform="matrix(1 0 0 1 87.0158 218.7793)" class="st1 st3">TEAM Hankan </text>
<text transform="matrix(1 0 0 1 131.2158 248.7793)" class="st1 st3">member</text>
<text transform="matrix(1 0 0 1 65.0156 308.7793)" class="st4 st3">한칸과</text>
<text transform="matrix(1 0 0 1 140.0156 308.7793)" class="st1 st3"> </text>
<text transform="matrix(1 0 0 1 146.9156 308.7793)" class="st4 st3">함께</text>
<text transform="matrix(1 0 0 1 196.9156 308.7793)" class="st1 st3"> </text>
<text transform="matrix(1 0 0 1 203.9156 308.7793)" class="st4 st3">희망을</text>
<text transform="matrix(1 0 0 1 278.9156 308.7793)" class="st1 st3"> </text>
<text transform="matrix(1 0 0 1 28.0156 338.7793)" class="st4 st3">전달할</text>
<text transform="matrix(1 0 0 1 103.0156 338.7793)" class="st1 st3"> </text>
<text transform="matrix(1 0 0 1 109.9156 338.7793)" class="st4 st3">당신을</text>
<text transform="matrix(1 0 0 1 184.9156 338.7793)" class="st1 st3"> </text>
<text transform="matrix(1 0 0 1 191.9156 338.7793)" class="st4 st3">기다립니다</text>
<text transform="matrix(1 0 0 1 316.9156 338.7793)" class="st1 st3">.</text>
<text transform="matrix(1 0 0 1 52 428)" class="st1 st5">hankan5170@gmail.com</text>
</svg>
